<svg width="91" height="21" viewBox="0 0 91 21" fill="none" xmlns="http://www.w3.org/2000/svg">
<path d="M0.204134 12.798C0.204134 11.3073 0.507468 10.0073 1.11413 8.898C1.7208 7.77133 2.56147 6.90467 3.63613 6.298C4.7108 5.674 5.94147 5.362 7.32813 5.362C9.11347 5.362 10.5868 5.81267 11.7481 6.714C12.9268 7.598 13.7155 8.846 14.1141 10.458H10.1881C9.98013 9.834 9.6248 9.34867 9.12213 9.002C8.6368 8.638 8.03013 8.456 7.30213 8.456C6.26213 8.456 5.4388 8.83733 4.83213 9.6C4.22547 10.3453 3.92213 11.4113 3.92213 12.798C3.92213 14.1673 4.22547 15.2333 4.83213 15.996C5.4388 16.7413 6.26213 17.114 7.30213 17.114C8.77547 17.114 9.73747 16.4553 10.1881 15.138H14.1141C13.7155 16.698 12.9268 17.9373 11.7481 18.856C10.5695 19.7747 9.09613 20.234 7.32813 20.234C5.94147 20.234 4.7108 19.9307 3.63613 19.324C2.56147 18.7 1.7208 17.8333 1.11413 16.724C0.507468 15.5973 0.204134 14.2887 0.204134 12.798ZM24.3728 5.388C25.4648 5.388 26.4354 5.63067 27.2848 6.116C28.1341 6.584 28.7928 7.286 29.2608 8.222C29.7461 9.14067 29.9888 10.25 29.9888 11.55V20H26.3488V12.044C26.3488 10.9 26.0628 10.0247 25.4908 9.418C24.9188 8.794 24.1388 8.482 23.1508 8.482C22.1454 8.482 21.3481 8.794 20.7588 9.418C20.1868 10.0247 19.9008 10.9 19.9008 12.044V20H16.2608V0.76H19.9008V7.39C20.3688 6.766 20.9928 6.28067 21.7728 5.934C22.5528 5.57 23.4194 5.388 24.3728 5.388ZM31.9942 12.746C31.9942 11.29 32.2802 9.99867 32.8522 8.872C33.4415 7.74533 34.2302 6.87867 35.2182 6.272C36.2235 5.66533 37.3415 5.362 38.5722 5.362C39.6469 5.362 40.5829 5.57867 41.3802 6.012C42.1949 6.44533 42.8449 6.99133 43.3302 7.65V5.596H46.9962V20H43.3302V17.894C42.8622 18.57 42.2122 19.1333 41.3802 19.584C40.5655 20.0173 39.6209 20.234 38.5462 20.234C37.3329 20.234 36.2235 19.922 35.2182 19.298C34.2302 18.674 33.4415 17.7987 32.8522 16.672C32.2802 15.528 31.9942 14.2193 31.9942 12.746ZM43.3302 12.798C43.3302 11.914 43.1569 11.16 42.8102 10.536C42.4635 9.89467 41.9955 9.40933 41.4062 9.08C40.8169 8.73333 40.1842 8.56 39.5082 8.56C38.8322 8.56 38.2082 8.72467 37.6362 9.054C37.0642 9.38333 36.5962 9.86867 36.2322 10.51C35.8855 11.134 35.7122 11.8793 35.7122 12.746C35.7122 13.6127 35.8855 14.3753 36.2322 15.034C36.5962 15.6753 37.0642 16.1693 37.6362 16.516C38.2255 16.8627 38.8495 17.036 39.5082 17.036C40.1842 17.036 40.8169 16.8713 41.4062 16.542C41.9955 16.1953 42.4635 15.71 42.8102 15.086C43.1569 14.4447 43.3302 13.682 43.3302 12.798ZM54.2693 8.586V15.554C54.2693 16.0393 54.382 16.3947 54.6073 16.62C54.85 16.828 55.2486 16.932 55.8033 16.932H57.4933V20H55.2053C52.1373 20 50.6033 18.5093 50.6033 15.528V8.586H48.8873V5.596H50.6033V2.034H54.2693V5.596H57.4933V8.586H54.2693ZM61.1254 6.48V16.308C61.1254 17.1573 61.2207 17.8073 61.4114 18.258C61.602 18.7087 61.9054 19.0293 62.3214 19.22C62.7374 19.3933 63.318 19.48 64.0634 19.48H65.5454V20H64.0114C62.798 20 61.9227 19.7227 61.3854 19.168C60.8654 18.6133 60.6054 17.66 60.6054 16.308V6.48H58.3174V5.96H60.6054V2.372H61.1254V5.96H65.5454V6.48H61.1254ZM74.3825 19.714C75.9599 19.714 77.2859 19.3153 78.3605 18.518C79.4352 17.7207 80.0852 16.6287 80.3105 15.242H80.8305C80.5879 16.7153 79.8945 17.9113 78.7505 18.83C77.6239 19.7313 76.1679 20.182 74.3825 20.182C73.0825 20.182 71.9212 19.896 70.8985 19.324C69.8759 18.752 69.0699 17.92 68.4805 16.828C67.9085 15.736 67.6225 14.4533 67.6225 12.98C67.6225 11.5067 67.9085 10.224 68.4805 9.132C69.0699 8.04 69.8759 7.208 70.8985 6.636C71.9212 6.064 73.0825 5.778 74.3825 5.778C75.7519 5.778 76.9219 6.07267 77.8925 6.662C78.8632 7.234 79.5912 7.97933 80.0765 8.898C80.5792 9.81667 80.8305 10.7873 80.8305 11.81C80.8305 12.434 80.8219 12.902 80.8045 13.214H68.1425C68.1599 14.6527 68.4545 15.8573 69.0265 16.828C69.6159 17.7987 70.3785 18.5267 71.3145 19.012C72.2505 19.48 73.2732 19.714 74.3825 19.714ZM74.3825 6.246C73.2732 6.246 72.2505 6.48867 71.3145 6.974C70.3785 7.442 69.6159 8.16133 69.0265 9.132C68.4545 10.1027 68.1599 11.3073 68.1425 12.746H80.3625C80.4492 11.3073 80.2152 10.1027 79.6605 9.132C79.1232 8.16133 78.3779 7.442 77.4245 6.974C76.4885 6.48867 75.4745 6.246 74.3825 6.246ZM84.5987 9.366C85.1534 6.88733 86.9994 5.648 90.1367 5.648V6.22H89.9027C88.4294 6.22 87.1727 6.65333 86.1327 7.52C85.11 8.36933 84.5987 9.74733 84.5987 11.654V20H84.0787V5.96H84.5987V9.366Z" fill="white"/>
</svg>
