<svg width="196" height="23" viewBox="0 0 196 23" fill="none" xmlns="http://www.w3.org/2000/svg">
<g clip-path="url(#clip0)">
<path d="M24.3364 8.22643L16.6509 7.14639L13.2061 0.395885C12.9489 -0.108199 12.0499 -0.108199 11.7926 0.395885L8.34886 7.14639L0.663438 8.22643C0.0321877 8.31555 -0.219896 9.02184 0.222813 9.43872L5.80615 14.7038L4.48635 22.1472C4.38115 22.7385 5.0676 23.1822 5.63531 22.8918L12.4999 19.4016L19.3645 22.8928C19.927 23.1803 20.6197 22.7452 20.5134 22.1481L19.1936 14.7048L24.777 9.43968C25.2197 9.02184 24.9666 8.31555 24.3364 8.22643Z" fill="#FFC107"/>
</g>
<g clip-path="url(#clip1)">
<path d="M66.3629 8.22643L58.9849 7.14639L55.6779 0.395885C55.4309 -0.108199 54.5679 -0.108199 54.3209 0.395885L51.0149 7.14639L43.6369 8.22643C43.0309 8.31555 42.7889 9.02184 43.2139 9.43872L48.5739 14.7038L47.3069 22.1472C47.2059 22.7385 47.8649 23.1822 48.4099 22.8918L54.9999 19.4016L61.5899 22.8928C62.1299 23.1803 62.7949 22.7452 62.6929 22.1481L61.4259 14.7048L66.7859 9.43968C67.2109 9.02184 66.9679 8.31555 66.3629 8.22643Z" fill="#FFC107"/>
</g>
<g clip-path="url(#clip2)">
<path d="M109.363 8.22643L101.985 7.14639L98.6779 0.395885C98.4309 -0.108199 97.5679 -0.108199 97.3209 0.395885L94.0149 7.14639L86.6369 8.22643C86.0309 8.31555 85.7889 9.02184 86.2139 9.43872L91.5739 14.7038L90.3069 22.1472C90.2059 22.7385 90.8649 23.1822 91.4099 22.8918L97.9999 19.4016L104.59 22.8928C105.13 23.1803 105.795 22.7452 105.693 22.1481L104.426 14.7048L109.786 9.43968C110.211 9.02184 109.968 8.31555 109.363 8.22643Z" fill="#FFC107"/>
</g>
<g clip-path="url(#clip3)">
<path d="M152.363 8.22643L144.985 7.14639L141.678 0.395885C141.431 -0.108199 140.568 -0.108199 140.321 0.395885L137.015 7.14639L129.637 8.22643C129.031 8.31555 128.789 9.02184 129.214 9.43872L134.574 14.7038L133.307 22.1472C133.206 22.7385 133.865 23.1822 134.41 22.8918L141 19.4016L147.59 22.8928C148.13 23.1803 148.795 22.7452 148.693 22.1481L147.426 14.7048L152.786 9.43968C153.211 9.02184 152.968 8.31555 152.363 8.22643Z" fill="#FFC107"/>
</g>
<g clip-path="url(#clip4)">
<path d="M195.363 8.22643L187.985 7.14639L184.678 0.395885C184.431 -0.108199 183.568 -0.108199 183.321 0.395885L180.015 7.14639L172.637 8.22643C172.031 8.31555 171.789 9.02184 172.214 9.43872L177.574 14.7038L176.307 22.1472C176.206 22.7385 176.865 23.1822 177.41 22.8918L184 19.4016L190.59 22.8928C191.13 23.1803 191.795 22.7452 191.693 22.1481L190.426 14.7048L195.786 9.43968C196.211 9.02184 195.968 8.31555 195.363 8.22643Z" fill="#FFC107"/>
</g>
<defs>
<clipPath id="clip0">
<rect width="25" height="23" fill="white"/>
</clipPath>
<clipPath id="clip1">
<rect width="24" height="23" fill="white" transform="translate(43)"/>
</clipPath>
<clipPath id="clip2">
<rect width="24" height="23" fill="white" transform="translate(86)"/>
</clipPath>
<clipPath id="clip3">
<rect width="24" height="23" fill="white" transform="translate(129)"/>
</clipPath>
<clipPath id="clip4">
<rect width="24" height="23" fill="white" transform="translate(172)"/>
</clipPath>
</defs>
</svg>
